Coordinates
version=1
nRows=19
nColumns=24
inDegrees=yes

Units are S.I. units (second, meters, Newtons, ...)
Angles are in degrees.

endheader
time	pelvis_tilt	pelvis_list	pelvis_rotation	pelvis_tx	pelvis_ty	pelvis_tz	hip_flexion_r	hip_adduction_r	hip_rotation_r	knee_angle_r	ankle_angle_r	subtalar_angle_r	mtp_angle_r	hip_flexion_l	hip_adduction_l	hip_rotation_l	knee_angle_l	ankle_angle_l	subtalar_angle_l	mtp_angle_l	lumbar_extension	lumbar_bending	lumbar_rotation
      2.85500000	     -5.12101456	      2.69529688	    361.06927099	     -0.31004937	      1.39180082	     -1.03435589	     27.50517088	     -1.65376936	      2.14115259	    -22.54058465	     -2.68688207	     -9.57954362	      9.27805212	      1.18760823	      6.55694664	      7.15675378	     -6.39197573	      3.58579039	     -3.16671433	     15.76466808	     -8.19254778	      0.66780227	      9.01404013
      2.86000000	     -5.19471552	      2.77612796	    361.19742276	     -0.30521096	      1.39103672	     -1.03444026	     27.34967074	     -1.82823879	      2.28786811	    -20.58194309	     -3.39147127	     -9.84344510	      9.15470117	      0.94913139	      6.65815935	      7.37681074	     -6.38868661	      3.85672842	     -3.24041272	     15.55382904	     -8.13485721	      0.57633408	      8.89193766
      2.86500000	     -5.30887470	      2.86010024	    361.35009584	     -0.30040457	      1.39019583	     -1.03456717	     27.22430530	     -2.02445255	      2.43932469	    -18.62522208	     -4.00636131	    -10.05743683	      9.04423911	      0.77922514	      6.76769212	      7.65688433	     -6.43298602	      4.12614783	     -3.32301512	     15.38539934	     -8.03598800	      0.47580953	      8.79913082
      2.87000000	     -5.39632373	      2.95568134	    361.48564264	     -0.29558066	      1.38935633	     -1.03466001	     27.05214233	     -2.23000187	      2.60383013	    -16.65570354	     -4.64869930	    -10.29865359	      9.01239921	      0.57007967	      6.88701074	      7.89153199	     -6.45984942	      4.38847154	     -3.42160404	     15.14961544	     -7.97631967	      0.37551611	      8.65834290
      2.87500000	     -5.50785817	      3.05571739	    361.63943845	     -0.29073505	      1.38845856	     -1.03478343	     26.88765082	     -2.45718903	      2.75045150	    -14.68861778	     -5.21605241	    -10.49545966	      9.03203038	      0.39499883	      7.01427662	      8.15714270	     -6.50780194	      4.65914119	     -3.52319260	     14.93141602	     -7.88068808	      0.26806222	      8.53758864
      2.88000000	     -5.61163592	      3.16288922	    361.80503987	     -0.28588170	      1.38753170	     -1.03492762	     26.69770557	     -2.70384156	      2.88579206	    -12.72919817	     -5.72792107	    -10.66095903	      9.07689828	      0.21555587	      7.15038260	      8.44584777	     -6.56754860	      4.92253612	     -3.64048041	     14.71971963	     -7.79845351	      0.15633232	      8.41597025
      2.88500000	     -5.74504475	      3.28044873	    361.99207119	     -0.28100331	      1.38653763	     -1.03509792	     26.53115532	     -2.97687442	      2.99730383	    -10.80412256	     -6.16429374	    -10.77931607	      9.11921227	      0.07757030	      7.30111173	      8.77029566	     -6.65219564	      5.18405873	     -3.77459591	     14.53050860	     -7.68494870	      0.03704066	      8.27323829
      2.89000000	     -5.86722990	      3.41305432	    362.18274489	     -0.27609335	      1.38551791	     -1.03526641	     26.34567082	     -3.27107994	      3.07072894	     -8.91856320	     -6.55407338	    -10.82961610	      9.18546023	     -0.07840706	      7.46750275	      9.08978557	     -6.73134132	      5.43619648	     -3.91805693	     14.32934439	     -7.57885229	     -0.09927635	      8.13118768
      2.89500000	     -5.99424407	      3.55811164	    362.37799516	     -0.27114879	      1.38444133	     -1.03543129	     26.17213899	     -3.58098642	      3.10467489	     -7.10722382	     -6.87063109	    -10.81881623	      9.27338918	     -0.23184284	      7.64748736	      9.42377119	     -6.81577579	      5.69323308	     -4.07512175	     14.11841136	     -7.46745987	     -0.24592234	      7.97866033
      2.90000000	     -6.13001045	      3.70705926	    362.58220063	     -0.26618348	      1.38332641	     -1.03559233	     26.02010431	     -3.89683555	      3.09437787	     -5.39098381	     -7.09686118	    -10.72535376	      9.33237137	     -0.37233319	      7.83121842	      9.76786791	     -6.91247815	      5.95147504	     -4.22836933	     13.93519866	     -7.34503461	     -0.39577835	      7.82551150
      2.90500000	     -6.26033760	      3.86131638	    362.79051440	     -0.26119954	      1.38219408	     -1.03573905	     25.88121577	     -4.21434430	      3.02848188	     -3.78851919	     -7.24403993	    -10.55102331	      9.37258207	     -0.51872818	      8.01890852	     10.12092171	     -7.01577831	      6.20313325	     -4.38846207	     13.75606348	     -7.22955828	     -0.55239084	      7.67419217
      2.91000000	     -6.40902892	      3.99648448	    363.00362007	     -0.25616334	      1.38103865	     -1.03588053	     25.78319134	     -4.50717119	      2.92127562	     -2.31661836	     -7.31366880	    -10.32691946	      9.38596442	     -0.64552508	      8.18435462	     10.48176405	     -7.12600738	      6.46603024	     -4.52922960	     13.61217632	     -7.08683188	     -0.68607922	      7.53374400
      2.91500000	     -6.50805271	      4.12867826	    363.21257385	     -0.25111307	      1.37992959	     -1.03598639	     25.65690055	     -4.78192716	      2.73722651	     -0.98346898	     -7.31740290	    -10.02272454	      9.40810085	     -0.83234675	      8.33952705	     10.83293273	     -7.22883869	      6.72009091	     -4.66872614	     13.44814254	     -7.00037306	     -0.81377615	      7.38814308
      2.92000000	     -6.61616971	      4.24538919	    363.41703647	     -0.24602427	      1.37882259	     -1.03604991	     25.57742735	     -5.02401265	      2.51030992	      0.18036586	     -7.26351380	     -9.68273648	      9.42381748	     -1.01220677	      8.47263907	     11.17073056	     -7.33058254	      6.97628956	     -4.78305687	     13.29901246	     -6.89997136	     -0.92392556	      7.24535449
      2.92500000	     -6.69353772	      4.34328708	    363.60998285	     -0.24090415	      1.37776777	     -1.03606196	     25.50085839	     -5.22435490	      2.22646237	      1.17326207	     -7.15676735	     -9.29266692	      9.43010223	     -1.23012153	      8.57703403	     11.48824063	     -7.42583656	      7.22956367	     -4.87581613	     13.13854179	     -6.83299000	     -1.01489861	      7.09872396
      2.93000000	     -6.74847289	      4.39865243	    363.80136857	     -0.23571911	      1.37676755	     -1.03605958	     25.42651178	     -5.36555243	      1.90894765	      2.00269570	     -7.02375464	     -8.95780205	      9.43036429	     -1.47905164	      8.62683618	     11.79012491	     -7.50941660	      7.49791463	     -4.92602036	     13.02759523	     -6.77712896	     -1.05270670	      6.98844024
      2.93500000	     -6.77666720	      4.43799051	    363.97761151	     -0.23050882	      1.37582710	     -1.03599634	     25.36551776	     -5.46553391	      1.56465542	      2.64540757	     -6.86811515	     -8.63089041	      9.42713666	     -1.76074056	      8.64936268	     12.06529977	     -7.58511649	      7.75394372	     -4.94835186	     12.92804140	     -6.74898306	     -1.07275053	      6.88500847
      2.94000000	     -6.79084605	      4.44527832	    364.13937829	     -0.22524131	      1.37493848	     -1.03588832	     25.32812385	     -5.50913312	      1.19604124	      3.10602276	     -6.73530602	     -8.40102074	      9.41938887	     -2.06701363	      8.62750598	     12.31291395	     -7.64073098	      8.01116704	     -4.93759526	     12.86474646	     -6.71957248	     -1.06251913	      6.81268783
      2.94500000	     -6.79675964	      4.43414105	    364.29688116	     -0.21999897	      1.37407894	     -1.03574905	     25.32464532	     -5.52008666	      0.85426237	      3.38304877	     -6.60875671	     -8.32498771	      9.41021665	     -2.36615027	      8.58180506	     12.54229177	     -7.72146355	      8.26942241	     -4.90801267	     12.86341200	     -6.71276444	     -1.04826191	      6.81324591
